<?xml version="1.0" encoding="UTF-8"?>
<svg id="a" data-name="Layer 1" xmlns="http://www.w3.org/2000/svg" width="312.71" height="153.65" viewBox="0 0 312.71 153.65">
  <defs>
    <style>
      .c {
        fill: #00994f;
      }

      .d {
        fill: #e5f4f3;
      }

      .e {
        fill: #eac011;
      }
    </style>
  </defs>
  <path class="c" d="M49.51,20.36c-.5-.08-.95.33-.91.84.67,8.1,5.25,63.51,5.97,77,.68,12.85,1.21,33.68,1.33,38.4.01.5.49.86.97.74l109.09-26.51s.05-.01.07-.02c1.25-.43,37.13-12.73,52.45-17.49,13.79-4.29,74.03-27.01,87.78-32.21.76-.29.64-1.39-.16-1.51L49.51,20.36Z"/>
  <g>
    <path class="d" d="M90.14,48.49c-.17-1.1-.68-1.85-.75-2.23-.06-.38.14-.65.48-.71,1.81-.28,6.12,1.25,6.53,3.88,1.26,8.13-9.07,22.91-16.07,31.4-1.11,1.35-2.07,2.47-2.92,2.61-1.29.2-4.34-2.41-4.7-4.66-1.06-6.79,3.36-19.86,2.45-25.8-.18-1.15-.95-2.05-2.39-1.83-4.88.76-9.7,8.76-8.98,13.4.57,3.68,3.08,4.37,3.18,4.99.09.62-.19.96-.87,1.06-2.53.39-8.54-2-9.14-5.83-1.06-6.79,9.76-15.63,16.74-16.72,3.87-.6,6.88,1.38,7.35,4.44,1.04,6.69-2.97,19.27-2.19,24.29,5.56-6.74,12.63-19.5,11.26-28.29h.02Z"/>
    <path class="d" d="M110.9,79.06c-2.65.3-4.87-.87-5.5-3.53,0,0-2.72,4.44-6.37,4.85-2.59.29-5.04-1.54-5.36-4.46-.77-6.93,4.18-14.92,9.47-15.51,3.89-.43,5.49,1.68,5.49,1.68,1.44-.16,3.47.2,3.66,1.88.16,1.44-2.02,7.24-1.65,10.51.09.77.68,1.29,1.5,1.2,2.59-.29,4.69-4.7,4.69-4.7,0,0,.31-.72.88-.78.53-.06,1.06.33,1.11.85.05.43-.3,1.2-.3,1.2,0,0-2.85,6.3-7.61,6.83h0ZM104.45,63.08c-2.79.31-5.47,7.32-5.02,11.37.15,1.4.63,2.12,1.64,2.01,2.3-.26,5.76-7.8,5.35-11.5-.15-1.4-1-1.98-1.96-1.88Z"/>
    <path class="d" d="M130.9,74.04c2.6-.21,4.83-4.56,4.83-4.56,0,0,.33-.71.91-.75.53-.05,1.05.36,1.09.89.03.43-.34,1.2-.34,1.2,0,0-3.05,6.22-7.82,6.59-3.67.29-6.29-1.68-6.51-4.33-.34-4.25,2.44-7.81,2.31-9.31-.08-.96-2.98-.93-2.98-.93-1.46,4.82-3.05,7.92-3.95,9.49-.13.2-.42.76-1.01.81-.48.04-1.05-.45-1.09-.93-.03-.43.31-.95.44-1.2.77-1.32,2.48-4.28,3.5-8.92,0,0-1.69-1.03-1.87-3.44-.16-1.98,1.35-3.7,2.51-3.8,1.35-.11,3.12,1.3,3.19,2.27.1,1.26-.47,2.07-.4,2.85.05.67.95.94,2.11.85,2.17-.18,2.8-.85,3.95-.95s2.06.9,2.16,2.15c.18,2.17-3.07,6.55-2.76,10.46.09,1.1.76,1.63,1.72,1.57h0Z"/>
    <path class="d" d="M143.72,76.83c-4.78.25-8.96-3.81-9.1-6.66-.14-2.8,4.44-4.1,4.44-4.1,0,0,.93-1.65,2.98-5.19,2.1-3.49,3.59-4.73,4.79-4.8,1.01-.05,2.43,1.19,2.46,1.67.03.67-1.06,1.95-1,3.25.2,3.82,2.15,5.32,2.31,8.27.12,2.47-.93,3.72-.93,3.72,3.77-1.21,5.78-4.51,5.78-4.51,0,0,.35-.7.93-.72.53-.03,1.03.38,1.06.92.02.43-.38,1.18-.38,1.18,0,0-3.45,6.47-13.35,6.97h.01ZM139.81,69.37c.14,2.8.91,5.47,2.64,5.39,1.49-.08,2.61-2.02,2.5-4.2-.12-2.47-1.78-5.48-1.88-7.47,0,0-3.29,5.64-3.27,6.27h0Z"/>
    <path class="d" d="M162.61,72.5c2.62-.07,5.07-4.3,5.07-4.3,0,0,.37-.68.95-.7.53-.02,1.02.4,1.04.95.01.43-.4,1.17-.4,1.17,0,0-3.37,6.04-8.16,6.17-3.68.09-6.2-2.02-6.28-5.16-.09-3.49,2.34-10.52,3.43-13.26.22-.54.7-.94,1.28-.96,1.45-.04,3.87,1.93,3.89,2.66.08,2.91-2.53,6.94-2.41,11.63.03,1.11.63,1.82,1.59,1.8ZM163.58,52.34c-1.4.04-2.64-.94-2.69-2.69-.06-2.47,1.8-4.94,3.94-4.99,1.4-.04,2.49,1,2.53,2.59.07,2.57-1.71,5.03-3.79,5.08h.01Z"/>
    <path class="d" d="M180.8,68.13s.38-.68.96-.68c.53,0,1.02.42,1.02.96,0,.43-.43,1.16-.43,1.16,0,0-3.5,5.98-8.28,6-3.04.02-6.89-2.33-6.9-5.71-.02-2.66,1.35-8.19,3.02-13.23h-1.3c-.24,0-.38-.14-.39-.43,0-.48.76-1.7,1.44-1.7h.97c.95-2.63,1.9-4.95,2.77-6.51.23-.53.72-.92,1.3-.93,1.45,0,3.79,2,3.79,2.87,0,.43-.71,2.13-1.57,4.51l3.24-.02c.24,0,.38.15.39.44,0,.48-.81,1.7-1.44,1.7l-3,.02c-1.57,4.32-3.33,9.75-3.31,13.23,0,1.45,1.17,2.51,2.58,2.5,2.61-.02,5.15-4.19,5.15-4.19h0Z"/>
    <path class="d" d="M196.77,74.08c3.09-1.72,5.07-3.61,6.51-5.52,0,0,.5-.67,1.08-.65.58.01,1,.46.99.99-.02.44-.56,1.15-.56,1.15-1.75,2.24-4.32,4.55-8.82,6.77-1.78,5.77-4.4,12.19-10.25,12.05-2.95-.07-5.42-2.15-5.36-4.71.07-3.29,4.38-5.27,10.28-7.46.53-1.78.9-3.46,1.17-4.61-1.59,1.75-4.2,3.53-6.7,3.48-2.22-.06-4.98-2.2-4.92-4.8.08-3.48,2.86-11.02,4.09-13.7.25-.53.75-.9,1.33-.88,1.45.03,3.77,2.11,3.76,2.84-.06,2.51-3.33,7.81-3.42,12.06-.01.77.36,1.46,1.08,1.48,1.55.04,3.48-1.85,4.34-3.34,1.91-3.29,3.29-8.64,4.33-11.91.15-.57.75-.9,1.38-.89,1.4.03,3.72,2.12,3.71,2.84-.03,1.35-1.87,7.9-3.38,12.65l-.63,2.16h0ZM189.73,79.68c-3.48,1.85-5.95,4.27-5.99,5.62-.02.63.27.97.85.99,2.13.05,3.9-3.11,5.14-6.61Z"/>
  </g>
  <g>
    <path class="d" d="M77.6,119.34l3.63.31c.63,1.37-.06,3.37-.09,4.91l-15.17,4.2.4-4.81c.79-1.03,3.56-1.8,3.8-2.97l1.73-20.88c-.15-1.45-2.89-.64-3.32-1.33-.45-1.63.09-3.49.54-5.04l19.33-3.94c1.51-.3,5.21,2.5,5.65,3.73.16.45.17,1.11.17,1.6,0,1.6-.6,9.79-1.09,10.82-.25.55-3.81,4.31-4.37,4.62l-10.83,2.9-.35,5.88h0ZM78.4,106.91c.23.27,6.3-1.19,6.96-1.42.95-.33,1.63-1.22,1.84-2.2s.54-4.96.37-5.77c-.06-.25-.31-.73-.53-.86-.39-.25-.8-.19-1.22-.16-.61.03-6.6,1.46-6.82,1.73l-.59,8.69h0Z"/>
    <path class="d" d="M115.31,85.25c1.51.01,5.48,2.9,5.72,4.42-.09,4.53-.34,9.03-.56,13.55-.08,1.72.25,4.62-.38,6.22-.26.65-3.75,4.54-4.37,4.87-1.02.54-11.11,3.27-12.23,3.31-.46.02-1.2-.2-1.63-.39-.84-.38-4.03-2.6-4.15-3.46-.09-.66-.04-2.46-.02-3.24.19-6.23.85-12.5,1.39-18.72,1.34-1.76,2.78-3.54,4.65-4.8,3.56,0,8.2-1.79,11.6-1.77h-.01ZM106.32,92.54c-.42.28-1.06,1.31-1.17,1.83-.52,2.48-.18,6.74-.29,9.41-.06,1.4-.8,5.54-.18,6.47.16.24.83.78,1.1.81,1.81-.89,5.05-.78,6.69-1.6.56-.28.92-1.08,1.3-1.57l.71-15.51c-.41-1.03-1.08-1.03-2.05-.99-.6.02-5.85.98-6.1,1.15h-.01Z"/>
    <path class="d" d="M140.77,97.47l-6.61,1.33-.32,5.41,7.81-1.97c.87-.53.19-2.33.93-3.15l4.87-1.07-.07,7.51-22.81,6.62c-.22-.17-.28-.33-.3-.6-.04-.49.02-3.64.14-3.96.32-.8,2.69-1.16,2.97-2.17l.76-14.8c.19-1.78-1.95-1.31-3.14-1.82l.2-4.22,22.15-2.58c.21.07.33.32.39.52.18.5.03,5.92-.13,6.67-.05.26-.02.52-.3.68l-4.54.68c.03-.74-.32-2.19-.97-2.55-1.15-.65-5.77.87-7.36.7l-.2,5.17,6.54-.87c.13.03.33.58.32.61l-.33,3.87h0Z"/>
    <path class="d" d="M174.92,86.6c-1.05-.01-3.18.73-4.09.36-.72-.3-.39-2.18-1.01-2.33l-3.62.56-.21,10.22.31.4c3.28-.57,3.35.66,2.82,3.51l-12.65,3.48.07-3.78c.65-.77,2.86-.86,3.11-1.75l.5-11.64-3.76.44-.54,2.72-4.14.59c-.28-.12-.3-.32-.32-.59-.09-.96.07-6.5.44-6.94l22.59-1.88.51.44-.04,6.19h.02Z"/>
  </g>
  <path class="e" d="M55.99,137.47c.45-.07.89-.15,1.31-.24l-7.76-116.87-4.61-.74v-.02S7.24,13.59,7.24,13.59l.16,8.42,19.66.75-20.11,2.87.29,7.34,37.84-3.46c.75,21.66,2.6,71.69,3.77,76.98,1.1,4.93,1.2,12.56,1.71,21.22l-33.47-3.75.45,7.95,19.66-.05-20,3.47.52,6.93,36.9-4.62c.19-.02.38-.03.58-.06.19-.02.38-.06.56-.08l.22-.03h0Z"/>
</svg>