<?xml version="1.0" encoding="UTF-8"?>
<svg id="a" data-name="Layer 1" xmlns="http://www.w3.org/2000/svg" width="312.71" height="153.65" viewBox="0 0 312.71 153.65">
  <defs>
    <style>
      .c {
        fill: none;
      }

      .d {
        fill: #12ee29;
      }

      .e {
        fill: #1a094f;
      }

      .f {
        fill: #54d4fa;
      }
    </style>
  </defs>
  <polyline class="f" points="63.71 28.56 60.49 28.03 67.18 121.84 71.07 121.39 66.09 28.93"/>
  <path class="e" d="M64.34,28.64s3.29,38.52,4.12,45.47.42,13.68.92,21.8c.5,8.12,1.26,20.89,1.28,25.41s216.84-58.6,216.84-58.6L64.34,28.64Z"/>
  <polygon class="f" points="36.69 109.31 36.81 115.9 53.08 116.47 36.43 118.73 36.65 124.47 68.44 121.68 67.87 113.98 36.69 109.31"/>
  <polygon class="f" points="30.79 23.2 30.92 30.17 47.19 30.8 30.55 33.17 30.78 39.24 62.57 36.35 61.98 28.2 30.79 23.2"/>
  <g>
    <path class="c" d="M49.66,85.37s95.21-26.35,198.65-7.5"/>
    <path class="d" d="M97.22,50c-.14-.88-.55-1.49-.6-1.79-.05-.31.11-.53.38-.57,1.46-.23,4.92.98,5.26,3.1,1.04,6.53-7.21,18.44-12.81,25.28-.89,1.09-1.65,2-2.34,2.11-1.04.17-3.5-1.92-3.79-3.73-.87-5.45,2.64-15.97,1.88-20.74-.15-.92-.78-1.65-1.93-1.46-3.92.63-7.77,7.07-7.17,10.79.47,2.96,2.49,3.5,2.57,4s-.15.77-.69.86c-2.04.33-6.87-1.58-7.36-4.65-.87-5.45,7.79-12.58,13.4-13.48,3.11-.5,5.53,1.08,5.92,3.54.86,5.37-2.33,15.49-1.68,19.52,4.45-5.44,10.08-15.71,8.96-22.77Z"/>
    <path class="d" d="M114.01,74.5c-2.12.24-3.91-.68-4.43-2.82,0,0-2.17,3.58-5.11,3.91-2.08.24-4.05-1.22-4.32-3.57-.64-5.56,3.31-12,7.56-12.49,3.13-.36,4.42,1.33,4.42,1.33,1.16-.13,2.79.15,2.95,1.5.13,1.16-1.6,5.82-1.3,8.45.07.62.55,1.03,1.21.96,2.09-.24,3.75-3.8,3.75-3.8,0,0,.25-.58.71-.63.42-.05.85.25.9.68.04.35-.24.97-.24.97,0,0-2.27,5.07-6.09,5.51ZM108.78,61.68c-2.24.26-4.37,5.9-4,9.15.13,1.12.51,1.7,1.32,1.61,1.85-.21,4.6-6.28,4.26-9.26-.13-1.12-.81-1.59-1.58-1.5Z"/>
    <path class="d" d="M130.04,70.4c2.09-.17,3.87-3.68,3.87-3.68,0,0,.26-.57.73-.61.43-.04.84.28.88.71.03.35-.27.96-.27.96,0,0-2.43,5-6.26,5.32-2.94.25-5.07-1.33-5.24-3.46-.29-3.41,1.93-6.29,1.83-7.49-.06-.78-2.4-.74-2.4-.74-1.16,3.88-2.43,6.37-3.14,7.63-.1.17-.34.61-.8.65-.39.03-.85-.36-.88-.75-.03-.35.25-.76.35-.97.61-1.07,1.97-3.44,2.79-7.18,0,0-1.36-.82-1.52-2.76-.13-1.59,1.08-2.98,2.01-3.05,1.08-.09,2.51,1.04,2.57,1.81.08,1.01-.37,1.67-.32,2.29.05.54.77.75,1.7.68,1.74-.15,2.24-.7,3.17-.77.93-.08,1.66.72,1.74,1.73.15,1.74-2.45,5.27-2.18,8.41.07.89.62,1.31,1.39,1.25Z"/>
    <path class="d" d="M140.36,72.59c-3.84.21-7.21-3.03-7.34-5.32-.12-2.25,3.56-3.31,3.56-3.31,0,0,.74-1.33,2.38-4.18,1.67-2.82,2.87-3.82,3.84-3.87.82-.04,1.96.94,1.98,1.33.03.54-.85,1.56-.79,2.61.17,3.06,1.75,4.26,1.88,6.63.11,1.98-.73,3-.73,3,3.02-.98,4.63-3.64,4.63-3.64,0,0,.28-.56.75-.58.43-.02.83.3.86.73.02.35-.3.95-.3.95,0,0-2.75,5.21-10.71,5.65ZM137.19,66.61c.12,2.25.75,4.4,2.14,4.32,1.2-.07,2.09-1.63,2-3.38-.11-1.98-1.45-4.4-1.53-5.99,0,0-2.63,4.54-2.6,5.05Z"/>
    <path class="d" d="M155.52,69.06c2.1-.06,4.06-3.47,4.06-3.47,0,0,.29-.55.76-.57.43-.01.83.32.84.75.01.35-.32.94-.32.94,0,0-2.69,4.86-6.54,4.98-2.95.09-4.99-1.6-5.06-4.12-.08-2.8,1.84-8.45,2.71-10.66.18-.43.56-.76,1.03-.77,1.17-.03,3.12,1.54,3.14,2.12.07,2.33-2.01,5.58-1.9,9.35.03.89.51,1.46,1.29,1.44ZM156.24,52.86c-1.13.03-2.12-.75-2.16-2.15-.06-1.98,1.44-3.97,3.15-4.02,1.13-.03,2.01.79,2.04,2.08.06,2.06-1.36,4.04-3.03,4.1Z"/>
    <path class="d" d="M170.12,65.48s.3-.55.77-.55c.43,0,.82.34.82.77,0,.35-.34.94-.34.94,0,0-2.79,4.81-6.64,4.85-2.45.03-5.54-1.85-5.57-4.57-.02-2.14,1.06-6.58,2.38-10.64h-1.05c-.2.01-.31-.1-.31-.34,0-.39.61-1.37,1.15-1.37h.78c.76-2.12,1.52-3.99,2.2-5.24.19-.43.58-.74,1.04-.75,1.17-.01,3.05,1.6,3.05,2.3,0,.35-.57,1.72-1.25,3.63l2.6-.03c.19,0,.31.11.31.35,0,.39-.65,1.37-1.15,1.37l-2.41.02c-1.25,3.47-2.64,7.84-2.61,10.64.01,1.17.95,2.01,2.08,2,2.1-.02,4.13-3.38,4.13-3.38Z"/>
    <path class="d" d="M182.97,70.21c2.47-1.39,4.06-2.92,5.21-4.45,0,0,.4-.54.87-.53.47,0,.81.36.8.79,0,.35-.44.92-.44.92-1.39,1.8-3.45,3.67-7.06,5.47-1.41,4.64-3.49,9.81-8.19,9.72-2.37-.04-4.36-1.71-4.32-3.77.05-2.64,3.5-4.25,8.24-6.03.42-1.43.71-2.79.92-3.71-1.27,1.42-3.36,2.85-5.38,2.82-1.79-.03-4.01-1.75-3.97-3.84.05-2.8,2.26-8.86,3.24-11.02.2-.42.6-.73,1.06-.72,1.17.02,3.04,1.69,3.03,2.27-.04,2.02-2.64,6.29-2.71,9.71-.01.62.29,1.17.87,1.18,1.24.02,2.79-1.5,3.47-2.7,1.53-2.66,2.62-6.95,3.44-9.58.12-.46.6-.73,1.1-.72,1.13.02,3,1.69,2.99,2.27-.02,1.09-1.48,6.35-2.68,10.17l-.5,1.74ZM177.33,74.74c-2.79,1.5-4.77,3.45-4.79,4.54,0,.5.22.78.69.79,1.71.03,3.12-2.51,4.1-5.33Z"/>
  </g>
  <g>
    <path class="d" d="M89.58,106.14l2.82.29c.47,1.08-.1,2.62-.14,3.82l-11.88,3.05.38-3.73c.63-.79,2.8-1.35,3-2.26l1.65-16.22c-.09-1.13-2.24-.55-2.56-1.09-.33-1.28.12-2.71.49-3.91l15.1-2.78c1.19-.21,4.02,2.02,4.34,2.98.12.35.12.87.11,1.24-.02,1.25-.61,7.61-1.01,8.41-.21.42-3.03,3.3-3.47,3.53l-8.48,2.1-.36,4.57ZM90.39,96.47c.18.21,4.92-.84,5.44-1.01.75-.25,1.29-.92,1.46-1.69s.5-3.85.37-4.48c-.04-.2-.23-.57-.4-.68-.3-.2-.62-.16-.95-.15-.47.02-5.16,1.04-5.34,1.24l-.59,6.76Z"/>
    <path class="d" d="M119.44,80.15c1.17.03,4.23,2.33,4.38,3.53-.14,3.53-.4,7.03-.64,10.54-.09,1.34.13,3.6-.39,4.84-.21.5-2.98,3.48-3.48,3.72-.8.4-8.7,2.38-9.57,2.4-.36,0-.94-.17-1.26-.32-.65-.31-3.1-2.09-3.18-2.75-.06-.52,0-1.92.03-2.53.24-4.84.84-9.71,1.36-14.55,1.07-1.35,2.22-2.72,3.69-3.67,2.78.05,6.42-1.27,9.05-1.2ZM112.33,85.7c-.33.21-.84,1-.94,1.41-.44,1.93-.24,5.24-.37,7.32-.07,1.09-.71,4.3-.24,5.03.12.18.63.61.84.64,1.42-.66,3.94-.54,5.24-1.15.44-.21.73-.83,1.03-1.2l.78-12.07c-.3-.81-.82-.81-1.58-.8-.47,0-4.57.68-4.77.81Z"/>
    <path class="d" d="M139.08,90.04l-5.16.94-.33,4.21,6.11-1.41c.69-.4.18-1.81.77-2.44l3.8-.76-.17,5.85-17.86,4.82c-.17-.14-.21-.26-.23-.47-.02-.39.06-2.83.17-3.08.26-.62,2.11-.86,2.34-1.64l.81-11.51c.17-1.38-1.5-1.05-2.41-1.46l.22-3.28,17.28-1.69c.16.05.25.26.3.41.13.39-.07,4.61-.2,5.19-.04.2-.03.41-.25.52l-3.55.46c.04-.57-.21-1.71-.72-2-.89-.52-4.51.59-5.74.43l-.23,4.02,5.1-.58c.1.02.25.46.24.48l-.31,3.01Z"/>
    <path class="d" d="M165.82,82.08c-.82-.03-2.49.53-3.19.22-.56-.25-.27-1.7-.75-1.83l-2.83.38-.31,7.95.24.32c2.56-.39,2.6.56,2.15,2.78l-9.89,2.52.11-2.94c.52-.59,2.24-.63,2.44-1.32l.56-9.05-2.93.29-.46,2.11-3.23.4c-.21-.1-.23-.26-.24-.47-.05-.76.15-5.06.45-5.39l17.61-1.14.4.35-.12,4.82Z"/>
  </g>
</svg>